<svg xmlns="http://www.w3.org/2000/svg" version="1.1" viewBox="-5.0 -10.0 110.0 135.0">
 <path d="m50 6.25c-0.097656 0-0.19141 0.007812-0.28516 0.019531-0.015625 0.003907-0.03125 0.003907-0.046875 0.007813-0.19531 0.03125-0.37891 0.089844-0.55078 0.17188-0.019532 0.007812-0.039063 0.015625-0.058594 0.027343-0.082032 0.042969-0.16406 0.089844-0.23828 0.14453-0.003906 0.003906-0.007812 0.003906-0.007812 0.003906l-41.668 29.168c-0.94531 0.66016-1.1719 1.9648-0.51172 2.9023 0.66016 0.94531 1.9531 1.1719 2.8945 0.51172l0.89062-0.62109v50.996h-2.082c-1.1484 0-2.082 0.93359-2.082 2.082 0 1.1484 0.93359 2.082 2.082 2.082h83.332c1.1484 0 2.082-0.93359 2.082-2.082 0-1.1484-0.93359-2.082-2.082-2.082h-2.082v-50.996l0.89062 0.62109c0.94141 0.66016 2.2383 0.42969 2.8945-0.51172 0.66016-0.94141 0.42969-2.2422-0.51172-2.9023l-41.668-29.168c-0.33594-0.23828-0.74609-0.375-1.1914-0.375zm-2.082 6.082v14.957c-4.7539 0.96484-8.332 5.1719-8.332 10.207 0 1.1484 0.93359 2.082 2.082 2.082h16.668c1.1484 0 2.082-0.93359 2.082-2.082 0-5.0391-3.5781-9.2422-8.332-10.207v-14.957l33.332 23.336v53.914h-12.5v-6.5117c3.5938-0.92578 6.25-4.1914 6.25-8.0742 0-1.5156-0.59766-3.6406-1.5078-5.8672-1.8945-4.6445-5.0508-9.8008-5.0508-9.8008-0.375-0.61719-1.0508-0.99609-1.7734-0.99609-0.72656 0-1.3984 0.37891-1.7734 0.99609 0 0-3.1562 5.1602-5.0508 9.8008-0.91016 2.2266-1.5078 4.3516-1.5078 5.8672 0 3.8828 2.6562 7.1484 6.25 8.0742v6.5117h-16.668v-6.5117c3.5938-0.92578 6.25-4.1914 6.25-8.0742 0-1.5156-0.59766-3.6406-1.5078-5.8672-1.8945-4.6445-5.0508-9.8008-5.0508-9.8008-0.375-0.61719-1.0508-0.99609-1.7734-0.99609-0.72656 0-1.3984 0.37891-1.7734 0.99609 0 0-3.1562 5.1602-5.0508 9.8008-0.91016 2.2266-1.5078 4.3516-1.5078 5.8672 0 3.8828 2.6562 7.1484 6.25 8.0742v6.5117h-16.668v-6.5117c3.5938-0.92578 6.25-4.1914 6.25-8.0742 0-1.5156-0.59766-3.6406-1.5078-5.8672-1.8945-4.6445-5.0508-9.8008-5.0508-9.8008-0.375-0.61719-1.0508-0.99609-1.7734-0.99609-0.72656 0-1.3984 0.37891-1.7734 0.99609 0 0-3.1562 5.1602-5.0508 9.8008-0.91016 2.2266-1.5078 4.3516-1.5078 5.8672 0 3.8828 2.6562 7.1484 6.25 8.0742v6.5117h-12.5v-53.914l33.332-23.336zm2.082 18.918c2.7188 0 5.0352 1.7383 5.8906 4.168h-11.785c0.85938-2.4258 3.1719-4.168 5.8906-4.168zm-8.4023 10.418c-0.73828 0.023437-1.4414 0.44531-1.7969 1.1523l-2.082 4.168c-0.51562 1.0273-0.097656 2.2852 0.93359 2.7969 1.0273 0.51562 2.2852 0.097656 2.7969-0.93359l2.082-4.168c0.51562-1.0273 0.097656-2.2852-0.93359-2.7969-0.32031-0.16016-0.66406-0.23047-1-0.21875zm8.4023 0c-1.1484 0-2.082 0.93359-2.082 2.082v4.168c0 1.1484 0.93359 2.082 2.082 2.082s2.082-0.93359 2.082-2.082v-4.168c0-1.1484-0.93359-2.082-2.082-2.082zm8.4023 0c-0.33594-0.011719-0.67969 0.058593-1 0.21875-1.0273 0.51172-1.4492 1.7695-0.93359 2.7969l2.082 4.168c0.51172 1.0273 1.7695 1.4492 2.7969 0.93359 1.0273-0.51172 1.4492-1.7695 0.93359-2.7969l-2.082-4.168c-0.35547-0.70703-1.0547-1.1289-1.7969-1.1523zm-29.234 22.934c0.94922 1.7344 2.1055 3.9805 2.9727 6.1055 0.66797 1.6367 1.1953 3.1836 1.1953 4.293 0 1.5391-0.83984 2.8789-2.082 3.6016v-3.6016c0-1.1484-0.93359-2.082-2.082-2.082s-2.082 0.93359-2.082 2.082v3.6016c-1.2422-0.72266-2.082-2.0625-2.082-3.6016 0-1.1094 0.52734-2.6602 1.1953-4.293 0.86719-2.1289 2.0195-4.3711 2.9727-6.1055zm20.832 0c0.94922 1.7344 2.1055 3.9805 2.9727 6.1055 0.66797 1.6367 1.1953 3.1836 1.1953 4.293 0 1.5391-0.83984 2.8789-2.082 3.6016v-3.6016c0-1.1484-0.93359-2.082-2.082-2.082-1.1484 0-2.082 0.93359-2.082 2.082v3.6016c-1.2422-0.72266-2.082-2.0625-2.082-3.6016 0-1.1094 0.52734-2.6602 1.1953-4.293 0.86719-2.1289 2.0195-4.3711 2.9727-6.1055zm20.832 0c0.94922 1.7344 2.1055 3.9805 2.9727 6.1055 0.66797 1.6367 1.1953 3.1836 1.1953 4.293 0 1.5391-0.83984 2.8789-2.082 3.6016v-3.6016c0-1.1484-0.93359-2.082-2.082-2.082-1.1484 0-2.082 0.93359-2.082 2.082v3.6016c-1.2422-0.72266-2.082-2.0625-2.082-3.6016 0-1.1094 0.52734-2.6602 1.1953-4.293 0.86719-2.1289 2.0195-4.3711 2.9727-6.1055z" fill-rule="evenodd"/>
</svg>