<svg xmlns="http://www.w3.org/2000/svg" xmlns:xlink="http://www.w3.org/1999/xlink" version="1.1" x="0px" y="0px" viewBox="0 0 50 62.5" enable-background="new 0 0 50 50" xml:space="preserve"><g><path d="M40.56736,6.53905c-2.4985-1.1279-5.2671-1.751-8.4644-1.9053c-2.5791-0.125-4.792-0.1855-6.7651-0.1855   c-10.4678,0-16.814,1.7715-20.5776,5.7432c-2.7564,2.9091-4.0098,7.0595-3.7246,12.3359c0.3828,7.0957,5.1001,9.6133,9.0234,9.6133   c0.0005,0,0.0005,0,0.0005,0c3.1181,0,5.5908-1.5528,5.8804-3.6934c0.0708-0.5264-0.2818-1.0156-0.8033-1.1162l-0.2627-0.0498   c-2.9707-0.5664-3.5893-0.6846-3.5053-3.0986c0.0761-2.2139,1.6582-2.9991,2.9897-2.9991c1.3569,0,2.8784,0.8389,3.2188,2.7139   c0.477,2.626,0.0639,4.8916-1.2637,6.9287c-1.6465,2.5264-2.124,5.834-1.2461,8.6299c1.3736,4.3763,5.4874,6.0957,10.0586,6.0957   c4.5102,0,8.1103-1.9648,9.395-5.1279c3.37769-8.3114-3.48561-8.8372-2.123-16.5449c0.32859-1.8604,1.94719-2.7071,3.3125-2.7071   c1.124,0,2.4414,0.5801,2.7695,2.209c0.5183,2.5756-0.35871,3.5774-2.49611,3.749c-0.272,0.0225-0.541,0.0772-0.8145,0.1358   l-0.3042,0.0625c-0.5048,0.0937-0.8564,0.5537-0.8144,1.0654c0.4803,5.8353,17.60321,6.6208,14.6001-11.0225   C47.77145,12.20705,45.05175,8.56245,40.56736,6.53905z M36.49656,29.08785c3.319-0.4099,4.626-2.7155,3.9443-6.1015   c-0.4668-2.3174-2.3237-3.8145-4.7304-3.8145c-2.1729,0-4.753,1.3643-5.2823,4.3594c-1.5189,8.5937,5.1591,8.9543,2.2403,16.1406   c-1.1626,2.8604-4.6582,3.8799-7.5425,3.8799c-3.6591,0-7.0454-1.1751-8.1504-4.6943c-1.9834-6.3178,4.0178-7.3477,2.5693-15.3174   c-0.5468-3.0098-2.999-4.3565-5.1865-4.3565c-2.3208,0-4.8721,1.543-4.9888,4.9307c-0.1259,3.6318,1.6617,4.4111,4.1011,4.9277   c-0.6802,0.6504-1.9805,1.0987-3.4106,1.0987c0,0-0.0005,0-0.001,0c-3.1953,0-6.7192-2.0283-7.0264-7.7207   c-0.2578-4.7725,0.7823-8.3223,3.1792-10.8526c3.3545-3.54,9.253-5.1191,19.126-5.1191c1.9404,0,4.1221,0.0596,6.6685,0.1836   c2.9419,0.1416,5.4731,0.708,7.7382,1.7295c3.8951,1.7588,6.1631,4.8154,6.9346,9.3457   C48.98626,31.26545,38.72335,31.17115,36.49656,29.08785z"/></g><text x="0" y="65" fill="#000000" font-size="5px" font-weight="bold" font-family="'Helvetica Neue', Helvetica, Arial-Unicode, Arial, Sans-serif">Created by Vectors Point</text><text x="0" y="70" fill="#000000" font-size="5px" font-weight="bold" font-family="'Helvetica Neue', Helvetica, Arial-Unicode, Arial, Sans-serif">from the Noun Project</text></svg>